<svg xmlns="http://www.w3.org/2000/svg" width="17" height="17" viewBox="0 0 17 17" fill="none">
    <g clip-path="url(#clip0_33_35)">
        <path d="M7.73496 2.03151C7.81291 1.89774 7.92457 1.78676 8.0588 1.70962C8.19303 1.63248 8.34514 1.59189 8.49996 1.59189C8.65478 1.59189 8.80689 1.63248 8.94112 1.70962C9.07535 1.78676 9.18701 1.89774 9.26496 2.03151L11.2448 5.43009L15.0896 6.26309C15.2408 6.29595 15.3808 6.36789 15.4956 6.47172C15.6103 6.57555 15.6959 6.70765 15.7437 6.85485C15.7915 7.00205 15.7999 7.15921 15.768 7.31066C15.7361 7.46211 15.6651 7.60256 15.562 7.71801L12.9412 10.6512L13.3379 14.5648C13.3535 14.7189 13.3285 14.8744 13.2652 15.0158C13.202 15.1572 13.1027 15.2795 12.9774 15.3705C12.8521 15.4616 12.7051 15.5181 12.5511 15.5346C12.3971 15.5511 12.2414 15.5268 12.0997 15.4643L8.49996 13.8777L4.90021 15.4643C4.75849 15.5268 4.60284 15.5511 4.44883 15.5346C4.29481 15.5181 4.14781 15.4616 4.02249 15.3705C3.89718 15.2795 3.79795 15.1572 3.7347 15.0158C3.67145 14.8744 3.64639 14.7189 3.66204 14.5648L4.05871 10.6512L1.43788 7.71871C1.33462 7.60327 1.26345 7.46277 1.23148 7.31122C1.1995 7.15968 1.20784 7.0024 1.25565 6.85508C1.30347 6.70777 1.38909 6.57557 1.50397 6.47169C1.61885 6.36781 1.75897 6.29588 1.91033 6.26309L5.75517 5.43009L7.73496 2.03151Z" fill="#FFD233"/>
    </g>
    <defs>
        <clipPath id="clip0_33_35">
            <rect width="17" height="17" fill="white"/>
        </clipPath>
    </defs>
</svg>