<svg xmlns="http://www.w3.org/2000/svg" width="18" height="17" viewBox="0 0 18 17" fill="none">
    <g clip-path="url(#clip0_33_39)">
        <path d="M4.72521 10.6512L4.32855 14.5648C4.3129 14.7189 4.33795 14.8744 4.4012 15.0158C4.46445 15.1572 4.56368 15.2795 4.689 15.3705L4.72521 10.6512ZM4.72521 10.6512L2.10438 7.71871L4.72521 10.6512ZM11.6052 5.60836L11.6838 5.74319L11.8363 5.77623L15.6809 6.60918C15.7716 6.6289 15.8556 6.67206 15.9245 6.73435C15.9933 6.79665 16.0447 6.87591 16.0733 6.96423C16.102 7.05256 16.1071 7.14685 16.0879 7.23772C16.0688 7.32859 16.0262 7.41286 15.9644 7.48213L13.3436 10.4152L13.2396 10.5316L13.2554 10.6869L13.652 14.6005L13.652 14.6005C13.6614 14.693 13.6464 14.7863 13.6084 14.8711C13.5705 14.956 13.5109 15.0294 13.4358 15.084C13.3606 15.1386 13.2724 15.1726 13.18 15.1824C13.0875 15.1923 12.9942 15.1778 12.9091 15.1403L12.9091 15.1403L9.30931 13.5536L9.16646 13.4906L9.02362 13.5536L5.42387 15.1403L5.4238 15.1403C5.33877 15.1778 5.24538 15.1923 5.15297 15.1824C5.06056 15.1726 4.97236 15.1386 4.89717 15.084C4.82198 15.0294 4.76244 14.956 4.72449 14.8711C4.68654 14.7863 4.67151 14.693 4.6809 14.6005L4.68091 14.6005L5.07757 10.6869L5.09332 10.5316L4.98929 10.4152L2.36845 7.48271L2.36836 7.4826C2.3064 7.41334 2.2637 7.32903 2.24452 7.2381C2.22533 7.14718 2.23033 7.05281 2.25902 6.96442C2.28771 6.87603 2.33908 6.79671 2.40801 6.73439C2.47694 6.67206 2.56101 6.6289 2.65183 6.60922L6.49666 5.77623L6.64916 5.74319L6.7277 5.60836L8.70746 2.20982C8.75423 2.12957 8.82123 2.06298 8.90177 2.01669C8.98231 1.97041 9.07357 1.94606 9.16646 1.94606C9.25935 1.94606 9.35062 1.97041 9.43116 2.01669C9.5117 2.06298 9.57869 2.12957 9.62546 2.20983L11.6052 5.60836Z" stroke="#FFD233" stroke-width="0.708333"/>
        <path d="M6.5 6L9 2H9.5V8.5V10V11V12V13V13.5H9L5.5 15H5V10.5L2.5 7.5V7L6.5 6Z" fill="#FFD233"/>
    </g>
    <defs>
        <clipPath id="clip0_33_39">
            <rect width="17" height="17" fill="white" transform="translate(0.666504)"/>
        </clipPath>
    </defs>
</svg>