        <svg
          xmlns="http://www.w3.org/2000/svg"
          width="18"
          height="18"
          viewBox="0 0 18 18"
          fill="none"
        >
          <path
            d="M4.3681 2.72402L9.0001 7.35602L13.6081 2.74802C13.7099 2.63969 13.8325 2.55302 13.9686 2.49322C14.1047 2.43342 14.2515 2.40172 14.4001 2.40002C14.7184 2.40002 15.0236 2.52645 15.2486 2.7515C15.4737 2.97654 15.6001 3.28176 15.6001 3.60002C15.6029 3.74715 15.5756 3.89329 15.5199 4.02948C15.4642 4.16568 15.3812 4.28905 15.2761 4.39202L10.6081 9.00002L15.2761 13.668C15.4739 13.8615 15.5898 14.1235 15.6001 14.4C15.6001 14.7183 15.4737 15.0235 15.2486 15.2486C15.0236 15.4736 14.7184 15.6 14.4001 15.6C14.2472 15.6064 14.0946 15.5808 13.952 15.5251C13.8095 15.4693 13.6801 15.3845 13.5721 15.276L9.0001 10.644L4.3801 15.264C4.2787 15.3688 4.15758 15.4524 4.0237 15.51C3.88982 15.5677 3.74585 15.5983 3.6001 15.6C3.28184 15.6 2.97661 15.4736 2.75157 15.2486C2.52653 15.0235 2.4001 14.7183 2.4001 14.4C2.3973 14.2529 2.4246 14.1068 2.48031 13.9706C2.53603 13.8344 2.61899 13.711 2.7241 13.608L7.3921 9.00002L2.7241 4.33202C2.52632 4.13854 2.41035 3.87652 2.4001 3.60002C2.4001 3.28176 2.52653 2.97654 2.75157 2.7515C2.97661 2.52645 3.28184 2.40002 3.6001 2.40002C3.8881 2.40362 4.1641 2.52002 4.3681 2.72402Z"
            fill="#D9DADB"
          ></path>
        </svg>