<svg xmlns="http://www.w3.org/2000/svg" width="39" height="42" viewBox="0 0 39 42" fill="none">
    <circle cx="19.2781" cy="20.8832" r="11.5876" fill="#F5F5F5"/>
    <path d="M35.4559 5.42515C32.805 5.14292 30.1959 4.55302 27.6814 3.66738C25.374 2.85192 23.1606 1.79132 21.0794 0.503793C20.5364 0.174254 19.9133 0 19.2781 0C18.6429 0 18.0199 0.174254 17.4769 0.503793L17.4749 0.50577C15.3941 1.79226 13.1814 2.85218 10.8748 3.66738C8.36158 4.55266 5.75386 5.14254 3.10427 5.42515C2.25315 5.51183 1.46447 5.91128 0.890982 6.54613C0.317495 7.18099 5.07181e-06 8.00607 0 8.8616V19.1334C0.00144084 22.9238 1.01587 26.6449 2.93828 29.9116C4.86069 33.1783 7.62123 35.8719 10.9342 37.7135L17.5975 41.4169C18.1106 41.7055 18.6894 41.8571 19.2781 41.8571C19.8668 41.8571 20.4456 41.7055 20.9588 41.4169L27.6221 37.7135C30.935 35.8719 33.6955 33.1783 35.618 29.9116C37.5404 26.6449 38.5548 22.9238 38.5562 19.1334V8.86358C38.5573 8.00798 38.2408 7.18244 37.6681 6.54684C37.0953 5.91125 36.307 5.51282 35.4559 5.42515ZM27.1456 17.2926L19.7309 25.2015C19.3787 25.5773 18.8936 25.8006 18.3791 25.8239C17.8646 25.8471 17.3613 25.6685 16.9766 25.3261L12.5278 21.3716C12.3239 21.2021 12.1562 20.9933 12.0346 20.7577C11.913 20.522 11.8401 20.2643 11.8202 19.9999C11.8002 19.7355 11.8337 19.4698 11.9185 19.2185C12.0033 18.9673 12.1378 18.7357 12.314 18.5375C12.4902 18.3394 12.7044 18.1786 12.9439 18.0649C13.1835 17.9512 13.4434 17.8869 13.7084 17.8757C13.9733 17.8645 14.2378 17.9067 14.486 17.9998C14.7343 18.0929 14.9613 18.235 15.1536 18.4176L18.1649 21.0928L24.2627 14.5877C24.4478 14.3909 24.6711 14.2339 24.9189 14.1265C25.1668 14.019 25.434 13.9634 25.7042 13.9629C26.0899 13.9627 26.4673 14.0753 26.7898 14.2869C27.1123 14.4985 27.3659 14.7998 27.5193 15.1537C27.6727 15.5076 27.7193 15.8987 27.6532 16.2787C27.5872 16.6588 27.4094 17.0112 27.1456 17.2926Z" fill="#004F9F"/>
</svg>