<svg xmlns="http://www.w3.org/2000/svg" width="18" height="17" viewBox="0 0 18 17" fill="none">
    <g clip-path="url(#clip0_6_570)">
        <path d="M4.72524 10.6512L4.32858 14.5647C4.31293 14.7188 4.33798 14.8744 4.40123 15.0157C4.46448 15.1571 4.56372 15.2795 4.68903 15.3705L4.72524 10.6512ZM4.72524 10.6512L2.10441 7.7187L4.72524 10.6512ZM11.6053 5.60835L11.6838 5.74317L11.8363 5.77621L15.6809 6.60916C15.7717 6.62888 15.8556 6.67204 15.9245 6.73434C15.9934 6.79664 16.0447 6.8759 16.0734 6.96422C16.1021 7.05254 16.1071 7.14684 16.088 7.2377C16.0688 7.32857 16.0262 7.41284 15.9644 7.48211L13.3436 10.4152L13.2396 10.5316L13.2554 10.6869L13.652 14.6005L13.6521 14.6005C13.6614 14.693 13.6464 14.7863 13.6085 14.8711C13.5705 14.956 13.511 15.0294 13.4358 15.084C13.3606 15.1386 13.2724 15.1726 13.18 15.1824C13.0876 15.1923 12.9942 15.1778 12.9092 15.1403L12.9091 15.1402L9.30934 13.5536L9.16649 13.4906L9.02365 13.5536L5.4239 15.1402L5.42383 15.1403C5.3388 15.1778 5.24542 15.1923 5.153 15.1824C5.06059 15.1726 4.97239 15.1386 4.8972 15.084C4.82201 15.0294 4.76247 14.956 4.72452 14.8711C4.68657 14.7863 4.67154 14.693 4.68093 14.6005L4.68094 14.6005L5.0776 10.6869L5.09335 10.5316L4.98932 10.4152L2.36848 7.48269L2.36839 7.48258C2.30643 7.41332 2.26373 7.32902 2.24455 7.23809C2.22536 7.14716 2.23036 7.05279 2.25905 6.96441C2.28774 6.87602 2.33911 6.7967 2.40804 6.73437C2.47697 6.67204 2.56104 6.62889 2.65186 6.60921L6.49669 5.77621L6.64919 5.74317L6.72773 5.60835L8.70749 2.20981C8.75426 2.12955 8.82126 2.06296 8.9018 2.01668C8.98234 1.9704 9.0736 1.94604 9.16649 1.94604C9.25938 1.94604 9.35065 1.9704 9.43119 2.01668C9.51173 2.06296 9.57872 2.12955 9.62549 2.20981L11.6053 5.60835Z" stroke="#FFD233" stroke-width="0.708333"/>
        <path d="M6.5 6L9 2H9.5V8.5V10V11V12V13V13.5H9L5.5 15H5V10.5L2.5 7.5V7L6.5 6Z" fill="#FFD233"/>
        <path d="M13 15L9.5 13.5V2.5L11.5 5.5L12.5 6L13.5 14.5L13 15Z" fill="#FFD233"/>
    </g>
    <defs>
        <clipPath id="clip0_6_570">
            <rect width="17" height="17" fill="white" transform="translate(0.666687)"/>
        </clipPath>
    </defs>
</svg>