<svg xmlns="http://www.w3.org/2000/svg" width="16" height="16" viewBox="0 0 16 16" fill="none">
    <path d="M5.72499 5.49068L7.45699 2.00268C7.50741 1.90174 7.58495 1.81683 7.68092 1.75749C7.77689 1.69815 7.88749 1.66672 8.00032 1.66672C8.11316 1.66672 8.22376 1.69815 8.31973 1.75749C8.4157 1.81683 8.49324 1.90174 8.54365 2.00268L10.2757 5.49068L14.1477 6.05335C14.2593 6.06883 14.3644 6.11541 14.4509 6.18775C14.5374 6.2601 14.6018 6.3553 14.6367 6.4625C14.6717 6.56969 14.6758 6.68456 14.6487 6.79398C14.6215 6.90341 14.5641 7.00298 14.483 7.08135L11.6817 9.79468L12.343 13.628C12.4277 14.12 11.9077 14.4947 11.463 14.2627L8.00032 12.452L4.53699 14.2627C4.09299 14.4953 3.57299 14.12 3.65765 13.6273L4.31899 9.79401L1.51765 7.08068C1.43698 7.00226 1.37992 6.90278 1.35296 6.79355C1.32601 6.68432 1.33024 6.56972 1.36517 6.46278C1.4001 6.35583 1.46433 6.26083 1.55057 6.18857C1.6368 6.11631 1.74158 6.06969 1.85299 6.05401L5.72499 5.49068Z" stroke="#999999" stroke-linecap="round" stroke-linejoin="round"/>
</svg>