<svg xmlns="http://www.w3.org/2000/svg" width="183" height="199" viewBox="0 0 183 199" fill="none">
    <mask id="path-1-inside-1_1_42" fill="white">
        <path fill-rule="evenodd" clip-rule="evenodd" d="M32.4968 0C14.7299 0 0.327026 14.403 0.327026 32.1699V150.126C0.327026 167.893 14.73 182.296 32.4969 182.296H48.0797L63.0468 197.263C64.7219 198.938 67.4378 198.938 69.1128 197.263L84.0799 182.296H150.453C168.22 182.296 182.623 167.893 182.623 150.126V32.1698C182.623 14.4029 168.22 0 150.453 0H32.4968Z"/>
    </mask>
    <path fill-rule="evenodd" clip-rule="evenodd" d="M32.4968 0C14.7299 0 0.327026 14.403 0.327026 32.1699V150.126C0.327026 167.893 14.73 182.296 32.4969 182.296H48.0797L63.0468 197.263C64.7219 198.938 67.4378 198.938 69.1128 197.263L84.0799 182.296H150.453C168.22 182.296 182.623 167.893 182.623 150.126V32.1698C182.623 14.4029 168.22 0 150.453 0H32.4968Z" fill="white"/>
    <path d="M48.0797 182.296L52.6292 177.746L50.7448 175.862H48.0797V182.296ZM69.1128 197.263L73.6623 201.812L69.1128 197.263ZM84.0799 182.296V175.862H81.4149L79.5304 177.746L84.0799 182.296ZM6.76099 32.1699C6.76099 17.9563 18.2833 6.43396 32.4968 6.43396V-6.43396C11.1766 -6.43396 -6.10694 10.8496 -6.10694 32.1699H6.76099ZM6.76099 150.126V32.1699H-6.10694V150.126H6.76099ZM32.4969 175.862C18.2834 175.862 6.76099 164.339 6.76099 150.126H-6.10694C-6.10694 171.446 11.1766 188.73 32.4969 188.73V175.862ZM48.0797 175.862H32.4969V188.73H48.0797V175.862ZM67.5963 192.713L52.6292 177.746L43.5302 186.845L58.4973 201.812L67.5963 192.713ZM64.5633 192.713C65.4009 191.876 66.7588 191.876 67.5963 192.713L58.4973 201.812C62.685 206 69.4746 206 73.6623 201.812L64.5633 192.713ZM79.5304 177.746L64.5633 192.713L73.6623 201.812L88.6294 186.845L79.5304 177.746ZM150.453 175.862H84.0799V188.73H150.453V175.862ZM176.189 150.126C176.189 164.339 164.666 175.862 150.453 175.862V188.73C171.773 188.73 189.057 171.446 189.057 150.126H176.189ZM176.189 32.1698V150.126H189.057V32.1698H176.189ZM150.453 6.43396C164.666 6.43396 176.189 17.9563 176.189 32.1698H189.057C189.057 10.8495 171.773 -6.43396 150.453 -6.43396V6.43396ZM32.4968 6.43396H150.453V-6.43396H32.4968V6.43396Z" fill="#004F9F" mask="url(#path-1-inside-1_1_42)"/>
</svg>