<svg xmlns="http://www.w3.org/2000/svg" width="14" height="14" viewBox="0 0 14 14" fill="none">
    <g clip-path="url(#clip0_33_18)">
        <path d="M7 0C10.8661 0 14 3.1339 14 7C14 10.8661 10.8661 14 7 14C3.1339 14 0 10.8661 0 7C0 3.1339 3.1339 0 7 0ZM7 0.9765C5.40247 0.9765 3.87037 1.61112 2.74074 2.74074C1.61112 3.87037 0.9765 5.40247 0.9765 7C0.9765 8.59753 1.61112 10.1296 2.74074 11.2593C3.87037 12.3889 5.40247 13.0235 7 13.0235C8.59753 13.0235 10.1296 12.3889 11.2593 11.2593C12.3889 10.1296 13.0235 8.59753 13.0235 7C13.0235 5.40247 12.3889 3.87037 11.2593 2.74074C10.1296 1.61112 8.59753 0.9765 7 0.9765ZM5.4208 8.4C5.46816 8.78448 5.65416 9.13848 5.94392 9.39559C6.23368 9.65271 6.60729 9.79528 6.99467 9.79657C7.38206 9.79786 7.7566 9.65777 8.04807 9.40259C8.33953 9.14741 8.52788 8.79466 8.5778 8.4105C8.58497 8.3477 8.60454 8.28695 8.63537 8.23178C8.6662 8.1766 8.70768 8.1281 8.75741 8.08908C8.80713 8.05006 8.86411 8.02131 8.92504 8.00448C8.98596 7.98766 9.04962 7.9831 9.11232 7.99107C9.17502 7.99904 9.23552 8.01938 9.2903 8.05091C9.34507 8.08245 9.39304 8.12455 9.43143 8.17476C9.4698 8.22498 9.49783 8.28232 9.51388 8.34346C9.52992 8.40459 9.53367 8.46831 9.5249 8.5309C9.4454 9.14593 9.14415 9.71079 8.6777 10.1194C8.21125 10.5281 7.61168 10.7525 6.99154 10.7504C6.3714 10.7483 5.77334 10.52 5.30962 10.1082C4.8459 9.69649 4.54841 9.12964 4.473 8.5141C4.46428 8.45128 4.46816 8.38735 4.48443 8.32605C4.50069 8.26475 4.529 8.20731 4.56771 8.15707C4.60642 8.10683 4.65475 8.06481 4.70988 8.03346C4.76502 8.00211 4.82584 7.98206 4.88881 7.97448C4.95177 7.9669 5.01562 7.97194 5.07662 7.98931C5.13761 8.00668 5.19454 8.03603 5.24406 8.07565C5.29359 8.11526 5.33473 8.16435 5.36507 8.22004C5.39542 8.27573 5.41436 8.33691 5.4208 8.4ZM4.0698 4.396C4.32878 4.396 4.57716 4.49888 4.76029 4.68201C4.94342 4.86514 5.0463 5.11352 5.0463 5.3725C5.0463 5.63148 4.94342 5.87986 4.76029 6.06299C4.57716 6.24612 4.32878 6.349 4.0698 6.349C3.81082 6.349 3.56244 6.24612 3.37931 6.06299C3.19618 5.87986 3.0933 5.63148 3.0933 5.3725C3.0933 5.11352 3.19618 4.86514 3.37931 4.68201C3.56244 4.49888 3.81082 4.396 4.0698 4.396ZM9.9302 4.396C10.1892 4.396 10.4376 4.49888 10.6207 4.68201C10.8038 4.86514 10.9067 5.11352 10.9067 5.3725C10.9067 5.63148 10.8038 5.87986 10.6207 6.06299C10.4376 6.24612 10.1892 6.349 9.9302 6.349C9.67122 6.349 9.42284 6.24612 9.23971 6.06299C9.05658 5.87986 8.9537 5.63148 8.9537 5.3725C8.9537 5.11352 9.05658 4.86514 9.23971 4.68201C9.42284 4.49888 9.67122 4.396 9.9302 4.396Z" fill="#999999"/>
    </g>
    <defs>
        <clipPath id="clip0_33_18">
            <rect width="14" height="14" fill="white"/>
        </clipPath>
    </defs>
</svg>